<svg width="20" height="20" viewBox="0 0 20 20" fill="none" xmlns="http://www.w3.org/2000/svg">
<path d="M9.99414 9.0293C11.2203 9.0293 12.3385 9.10084 13.0674 9.20898C13.0802 9.2208 13.8947 9.35353 14.1738 9.49805C14.6842 9.76259 15 10.2804 15 10.834V10.8818C14.9881 11.2427 14.6712 12.001 14.6602 12.001C14.125 13.2764 12.4606 15.7909 11.3545 16.8018C11.347 16.8093 11.0683 17.0889 10.8936 17.2109C10.6385 17.4036 10.3225 17.4999 10.0068 17.5C9.65451 17.5 9.32656 17.3919 9.05859 17.1875C9.00994 17.1393 8.80355 16.9591 8.63281 16.79C7.5634 15.8036 5.8154 13.228 5.28027 11.8809C5.19491 11.6763 5.01285 11.1591 5 10.8818C5.00001 10.6174 5.06155 10.3648 5.18262 10.124C5.35244 9.82312 5.62075 9.58292 5.93652 9.4502C6.15516 9.36565 6.81131 9.23242 6.82324 9.23242C7.54011 9.10065 8.70567 9.02931 9.99414 9.0293ZM10 2.5C10.6985 2.5 11.2656 3.06112 11.2656 3.75293L10.9922 6.83496C10.9922 7.37768 10.548 7.81836 10 7.81836C9.45124 7.81816 9.00781 7.37756 9.00781 6.83496L8.73535 3.75293C8.73535 3.06124 9.30162 2.5002 10 2.5Z" fill="#6E4055"/>
</svg>
