<svg width="24" height="24" viewBox="0 0 24 24" fill="none" xmlns="http://www.w3.org/2000/svg">
<path d="M19.1199 14.94L19.4399 15.59C19.5999 15.91 20.0099 16.21 20.3499 16.27L20.7799 16.34C22.0899 16.56 22.3899 17.52 21.4599 18.46L21.0599 18.86C20.7899 19.13 20.6499 19.65 20.7299 20.03L20.7799 20.27C21.1399 21.85 20.2999 22.46 18.9299 21.63L18.6399 21.45C18.2899 21.24 17.7099 21.24 17.3599 21.45L17.0699 21.63C15.6899 22.46 14.8599 21.85 15.2199 20.27L15.2699 20.03C15.3499 19.66 15.2099 19.13 14.9399 18.86L14.5399 18.46C13.6099 17.51 13.9099 16.56 15.2199 16.34L15.6499 16.27C15.9999 16.21 16.3999 15.91 16.5599 15.59L16.8799 14.94C17.4999 13.69 18.4999 13.69 19.1199 14.94Z" fill="#4A102A"/>
<path d="M16.19 2H7.81C4.17 2 2 4.17 2 7.81V16.19C2 19.83 4.17 22 7.81 22H13.09C13.44 22 13.69 21.64 13.65 21.29C13.61 20.91 13.63 20.46 13.75 19.94C13.77 19.87 13.75 19.79 13.69 19.73L13.47 19.51C12.62 18.65 12.31 17.61 12.61 16.66C12.92 15.72 13.78 15.06 14.97 14.86L15.27 14.81L15.54 14.27C16.09 13.15 16.99 12.5 18 12.5C19.01 12.5 19.91 13.15 20.46 14.27L20.61 14.58C20.68 14.73 20.82 14.83 20.98 14.86C21.07 14.88 21.16 14.9 21.25 14.92C21.6 15.01 22 14.73 22 14.36V7.81C22 4.17 19.83 2 16.19 2ZM16.26 8.96L13.95 11.94C13.66 12.31 13.25 12.55 12.78 12.6C12.32 12.66 11.85 12.53 11.49 12.24L9.66 10.82C9.59 10.76 9.51 10.76 9.47 10.77C9.43 10.77 9.36 10.79 9.3 10.87L6.92 13.96C6.77 14.15 6.55 14.25 6.32 14.25C6.16 14.25 6 14.2 5.86 14.09C5.53 13.84 5.47 13.37 5.72 13.04L8.1 9.95C8.39 9.58 8.8 9.34 9.27 9.28C9.74 9.22 10.2 9.35 10.57 9.64L12.4 11.08C12.47 11.14 12.54 11.13 12.59 11.13C12.63 11.13 12.7 11.11 12.76 11.03L15.07 8.05C15.32 7.72 15.79 7.66 16.12 7.92C16.46 8.17 16.51 8.64 16.26 8.96Z" fill="#4A102A"/>
</svg>
