<svg width="16" height="16" viewBox="0 0 16 16" fill="none" xmlns="http://www.w3.org/2000/svg">
<path d="M12.626 5.79817C12.7589 5.79817 12.8793 5.85642 12.9746 5.95442C13.0634 6.05908 13.1087 6.18919 13.0957 6.32649C13.094 6.39316 12.7396 10.8694 12.5371 12.7562C12.41 13.9166 11.6621 14.6214 10.54 14.6409C9.6772 14.6603 8.83336 14.6663 8.00293 14.6663C7.12115 14.6663 6.25794 14.6603 5.4209 14.6409C4.33647 14.6148 3.58742 13.8973 3.4668 12.7562C3.25855 10.863 2.91152 6.39421 2.90332 6.32649C2.89684 6.18923 2.94089 6.05906 3.03027 5.95442C3.11843 5.85645 3.24538 5.7982 3.37891 5.79817H12.626ZM9.37695 1.33333C9.96613 1.33355 10.4922 1.74487 10.6445 2.33138L10.7539 2.8177C10.8421 3.21437 11.1855 3.49544 11.5811 3.49544H13.5244C13.7838 3.49544 14 3.7107 14 3.9847V4.23763C14 4.50496 13.7838 4.72688 13.5244 4.72688H2.47559C2.21573 4.7267 2 4.50485 2 4.23763V3.9847C2 3.71081 2.21573 3.49561 2.47559 3.49544H4.41992C4.81468 3.49534 5.15825 3.21459 5.24707 2.81868L5.34863 2.3636C5.50689 1.74461 6.02749 1.33354 6.62305 1.33333H9.37695Z" fill="#F40C0C"/>
</svg>
