<?xml version="1.0" encoding="iso-8859-1"?>
<!-- Uploaded to: SVG Repo, www.svgrepo.com, Generator: SVG Repo Mixer Tools -->
<svg fill="#000000" height="800px" width="800px" version="1.1" id="Layer_1" xmlns="http://www.w3.org/2000/svg" xmlns:xlink="http://www.w3.org/1999/xlink" 
	 viewBox="0 0 512 512" xml:space="preserve">
<g>
	<g>
		<path d="M461.913,77.913H372.87V50.087C372.87,22.468,350.402,0,322.783,0H189.217c-27.619,0-50.087,22.468-50.087,50.087v27.826
			H50.087C22.424,77.913,0,100.338,0,128v50.087h122.435v-16.696c0-9.206,7.49-16.696,16.696-16.696h33.391
			c9.206,0,16.696,7.49,16.696,16.696v16.696h133.565v-16.696c0-9.206,7.49-16.696,16.696-16.696h33.391
			c9.206,0,16.696,7.49,16.696,16.696v16.696H512V128C512,100.338,489.576,77.913,461.913,77.913z M339.478,77.913H172.522V50.087
			c0-9.206,7.49-16.696,16.696-16.696h133.565c9.206,0,16.696,7.49,16.696,16.696V77.913z"/>
	</g>
</g>
<g>
	<g>
		<path d="M389.565,211.478v16.696c0,9.206-7.49,16.696-16.696,16.696h-33.391c-9.206,0-16.696-7.49-16.696-16.696v-16.696H189.217
			v16.696c0,9.206-7.49,16.696-16.696,16.696H139.13c-9.206,0-16.696-7.49-16.696-16.696v-16.696H33.391v250.435
			c0,27.662,22.424,50.087,50.087,50.087h345.043c27.662,0,50.087-22.424,50.087-50.087V211.478H389.565z M322.783,361.739h-50.087
			v50.087c0,9.223-7.479,16.696-16.696,16.696c-9.217,0-16.696-7.473-16.696-16.696v-50.087h-50.087
			c-9.217,0-16.696-7.473-16.696-16.696c0-9.223,7.479-16.696,16.696-16.696h50.087v-50.087c0-9.223,7.479-16.696,16.696-16.696
			c9.217,0,16.696,7.473,16.696,16.696v50.087h50.087c9.217,0,16.696,7.473,16.696,16.696
			C339.478,354.266,332,361.739,322.783,361.739z"/>
	</g>
</g>
</svg>