<svg width="24" height="24" viewBox="0 0 24 24" fill="none" xmlns="http://www.w3.org/2000/svg">
<path d="M8.28029 2.5007C8.9102 2.51972 9.52043 2.6298 10.1113 2.83078H10.1699C10.2097 2.84966 10.2398 2.87046 10.2598 2.88937C10.4807 2.96035 10.6897 3.04114 10.8897 3.15109L11.2695 3.32101C11.4195 3.40101 11.6002 3.55005 11.7002 3.61105C11.8001 3.66997 11.9101 3.73063 12 3.79953C13.1109 2.95068 14.4598 2.49079 15.8496 2.5007C16.4806 2.5007 17.111 2.58976 17.71 2.79074C21.4009 3.99073 22.7311 8.0408 21.6201 11.5808C20.9902 13.3896 19.9601 15.0404 18.6113 16.3894C16.6803 18.2594 14.5613 19.9203 12.2803 21.3503L12.0303 21.5007L11.7695 21.3396C9.48075 19.9196 7.35023 18.2595 5.40139 16.3796C4.06139 15.0306 3.02967 13.3898 2.38967 11.5808C1.25977 8.04082 2.59037 3.99121 6.32131 2.77023C6.61123 2.67026 6.91006 2.60024 7.20998 2.56125H7.3301C7.61106 2.52025 7.88997 2.5007 8.16994 2.5007H8.28029ZM17.1904 5.66085C16.7804 5.51985 16.3297 5.74085 16.1797 6.16085C16.0398 6.58076 16.2599 7.04109 16.6797 7.19015C17.3206 7.43011 17.7499 8.06064 17.75 8.75949V8.79074C17.731 9.01974 17.8004 9.24085 17.9404 9.41085C18.0804 9.58067 18.29 9.67985 18.5098 9.70089C18.9197 9.6899 19.2697 9.361 19.2998 8.94015V8.82101C19.3298 7.42014 18.4812 6.15095 17.1904 5.66085Z" fill="#3B0D22"/>
</svg>
