<svg width="24" height="24" viewBox="0 0 24 24" fill="none" xmlns="http://www.w3.org/2000/svg">
<path d="M19.0698 14.24C18.7798 14.53 18.3198 14.53 18.0398 14.24C17.7498 13.95 17.7498 13.49 18.0398 13.21C20.0398 11.21 20.0398 7.96001 18.0398 5.97001C16.0398 3.98001 12.7898 3.97001 10.7998 5.97001C8.80978 7.97001 8.79978 11.22 10.7998 13.21C11.0898 13.5 11.0898 13.96 10.7998 14.24C10.5098 14.53 10.0498 14.53 9.76979 14.24C7.19979 11.67 7.19979 7.49001 9.76979 4.93001C12.3398 2.37001 16.5198 2.36001 19.0798 4.93001C21.6398 7.50001 21.6398 11.67 19.0698 14.24Z" fill="#C1BFBD"/>
<path d="M4.93022 9.76001C5.22022 9.47001 5.68022 9.47001 5.96022 9.76001C6.25022 10.05 6.25022 10.51 5.96022 10.79C3.96022 12.79 3.96022 16.04 5.96022 18.03C7.96022 20.02 11.2102 20.03 13.2002 18.03C15.1902 16.03 15.2002 12.78 13.2002 10.79C12.9102 10.5 12.9102 10.04 13.2002 9.76001C13.4902 9.47001 13.9502 9.47001 14.2302 9.76001C16.8002 12.33 16.8002 16.51 14.2302 19.07C11.6602 21.63 7.48022 21.64 4.92022 19.07C2.36022 16.5 2.36022 12.33 4.93022 9.76001Z" fill="#C1BFBD"/>
</svg>
