<svg width="40" height="40" viewBox="0 0 40 40" fill="none" xmlns="http://www.w3.org/2000/svg">
<path d="M30.7833 28.0499L31.4333 33.3166C31.6 34.6999 30.1167 35.6666 28.9333 34.9499L23.1667 31.5166C22.7667 31.2833 22.6667 30.7833 22.8833 30.3833C23.7167 28.8499 24.1667 27.1166 24.1667 25.3833C24.1667 19.2833 18.9333 14.3166 12.5 14.3166C11.1833 14.3166 9.90001 14.5166 8.70001 14.9166C8.08334 15.1166 7.48334 14.5499 7.63334 13.9166C9.15001 7.84992 14.9833 3.33325 21.95 3.33325C30.0833 3.33325 36.6667 9.48325 36.6667 17.0666C36.6667 21.5666 34.35 25.5499 30.7833 28.0499Z" fill="#4A102A"/>
<path d="M21.6666 25.3833C21.6666 27.3666 20.9333 29.2 19.7 30.65C18.05 32.65 15.4333 33.9333 12.5 33.9333L8.14998 36.5166C7.41665 36.9667 6.48331 36.35 6.58331 35.5L6.99998 32.2167C4.76665 30.6666 3.33331 28.1833 3.33331 25.3833C3.33331 22.45 4.89998 19.8667 7.29998 18.3333C8.78331 17.3667 10.5666 16.8167 12.5 16.8167C17.5666 16.8167 21.6666 20.65 21.6666 25.3833Z" fill="#4A102A"/>
</svg>
