<svg width="32" height="32" viewBox="0 0 32 32" fill="none" xmlns="http://www.w3.org/2000/svg">
<path d="M11.0537 8.38675C10.4937 8.38675 10.0537 7.93341 10.0537 7.38675V3.66675C10.0537 3.12008 10.4937 2.66675 11.0537 2.66675C11.6137 2.66675 12.0537 3.12008 12.0537 3.66675V7.37341C12.0537 7.93341 11.6137 8.38675 11.0537 8.38675Z" fill="#4A102A"/>
<path d="M20.9463 8.38675C20.3863 8.38675 19.9463 7.93341 19.9463 7.38675V3.66675C19.9463 3.10675 20.3996 2.66675 20.9463 2.66675C21.5063 2.66675 21.9463 3.12008 21.9463 3.66675V7.37341C21.9463 7.93341 21.5063 8.38675 20.9463 8.38675Z" fill="#4A102A"/>
<path d="M26.093 6.00008C25.213 5.34675 23.9463 5.97341 23.9463 7.08008V7.21341C23.9463 8.77341 22.8263 10.2134 21.2663 10.3734C19.4663 10.5601 17.9463 9.14675 17.9463 7.38675V6.00008C17.9463 5.26675 17.3463 4.66675 16.613 4.66675H15.3863C14.653 4.66675 14.053 5.26675 14.053 6.00008V7.38675C14.053 8.44008 13.5063 9.37341 12.6797 9.89341C12.5597 9.97341 12.4263 10.0401 12.293 10.1067C12.173 10.1734 12.0397 10.2267 11.893 10.2667C11.733 10.3201 11.5597 10.3601 11.373 10.3734C11.1597 10.4001 10.9463 10.4001 10.733 10.3734C10.5463 10.3601 10.373 10.3201 10.213 10.2667C10.0797 10.2267 9.94634 10.1734 9.81301 10.1067C9.67967 10.0401 9.54634 9.97341 9.42634 9.89341C8.58634 9.30675 8.05301 8.29341 8.05301 7.21341V7.08008C8.05301 6.05341 6.95967 5.44008 6.09301 5.88008C6.07967 5.89341 6.06634 5.89341 6.05301 5.90675C5.99967 5.93341 5.95967 5.96008 5.90634 6.00008C5.86634 6.04008 5.81301 6.06675 5.77301 6.10675C5.39967 6.40008 5.06634 6.73341 4.78634 7.09341C4.63967 7.25341 4.51967 7.42675 4.41301 7.60008C4.39967 7.61341 4.38634 7.62675 4.37301 7.65341C4.25301 7.82675 4.14634 8.02675 4.05301 8.21341C4.02634 8.24008 4.01301 8.25341 4.01301 8.28008C3.93301 8.44008 3.85301 8.60008 3.79967 8.77341C3.75967 8.84008 3.74634 8.89341 3.71967 8.96008C3.63967 9.16008 3.58634 9.36008 3.53301 9.56008C3.47967 9.74675 3.43967 9.94675 3.41301 10.1467C3.38634 10.2934 3.37301 10.4401 3.35967 10.6001C3.34634 10.7867 3.33301 10.9734 3.33301 11.1601V22.8401C3.33301 26.4267 6.23967 29.3334 9.82634 29.3334H22.173C25.7597 29.3334 28.6663 26.4267 28.6663 22.8401V11.1601C28.6663 9.04008 27.653 7.18675 26.093 6.00008ZM15.9997 21.6667H13.7463V24.0001C13.7463 24.5467 13.293 25.0001 12.7463 25.0001C12.1863 25.0001 11.7463 24.5467 11.7463 24.0001V21.6667H9.33301C8.78634 21.6667 8.33301 21.2134 8.33301 20.6667C8.33301 20.1201 8.78634 19.6667 9.33301 19.6667H11.7463V17.3334C11.7463 16.7867 12.1863 16.3334 12.7463 16.3334C13.293 16.3334 13.7463 16.7867 13.7463 17.3334V19.6667H15.9997C16.5463 19.6667 16.9997 20.1201 16.9997 20.6667C16.9997 21.2134 16.5463 21.6667 15.9997 21.6667Z" fill="#4A102A"/>
</svg>
