<svg width="135" height="135" viewBox="0 0 135 135" fill="none" xmlns="http://www.w3.org/2000/svg">
<path d="M67.5 35.1562C68.6189 35.1562 69.6919 35.6007 70.4831 36.3919C71.2743 37.1831 71.7188 38.2561 71.7188 39.375V73.125C71.7188 74.2439 71.2743 75.3169 70.4831 76.1081C69.6919 76.8993 68.6189 77.3438 67.5 77.3438C66.3811 77.3438 65.3081 76.8993 64.5169 76.1081C63.7257 75.3169 63.2812 74.2439 63.2812 73.125V39.375C63.2812 38.2561 63.7257 37.1831 64.5169 36.3919C65.3081 35.6007 66.3811 35.1563 67.5 35.1562ZM67.5 95.625C68.9918 95.625 70.4226 95.0324 71.4775 93.9775C72.5324 92.9226 73.125 91.4918 73.125 90C73.125 88.5082 72.5324 87.0774 71.4775 86.0225C70.4226 84.9676 68.9918 84.375 67.5 84.375C66.0082 84.375 64.5774 84.9676 63.5225 86.0225C62.4676 87.0774 61.875 88.5082 61.875 90C61.875 91.4918 62.4676 92.9226 63.5225 93.9775C64.5774 95.0324 66.0082 95.625 67.5 95.625Z" fill="#B51F21"/>
<path fill-rule="evenodd" clip-rule="evenodd" d="M7.03125 67.5C7.03125 34.1044 34.1044 7.03125 67.5 7.03125C100.896 7.03125 127.969 34.1044 127.969 67.5C127.969 100.896 100.896 127.969 67.5 127.969C34.1044 127.969 7.03125 100.896 7.03125 67.5ZM67.5 15.4688C53.7005 15.4688 40.4661 20.9506 30.7084 30.7084C20.9506 40.4661 15.4688 53.7005 15.4688 67.5C15.4688 81.2995 20.9506 94.5339 30.7084 104.292C40.4661 114.049 53.7005 119.531 67.5 119.531C81.2995 119.531 94.5339 114.049 104.292 104.292C114.049 94.5339 119.531 81.2995 119.531 67.5C119.531 53.7005 114.049 40.4661 104.292 30.7084C94.5339 20.9506 81.2995 15.4688 67.5 15.4688Z" fill="#B51F21"/>
</svg>
