<svg width="73" height="57" viewBox="0 0 73 57" fill="none" xmlns="http://www.w3.org/2000/svg">
<g filter="url(#filter0_i_47_1910)">
<path fill-rule="evenodd" clip-rule="evenodd" d="M46.7336 28.6856C39.7323 27.3594 32.105 36.3254 26.0001 32.6503C19.7453 28.8851 23.5481 17.9884 19.2097 12.1167C14.8583 6.22747 1.33109 6.85944 1.53607 -0.460058C1.76931 -8.7886 17.2517 -8.95854 20.02 -16.817C22.4748 -23.786 12.7144 -30.9771 14.7845 -38.0698C16.6793 -44.5617 23.5912 -48.9801 30.02 -51.0789C36.3802 -53.1552 43.1027 -49.9677 49.7763 -49.4934C56.2432 -49.0338 64.0037 -52.5085 68.9456 -48.3123C74.2293 -43.8258 72.0179 -35.0196 74.4615 -28.5331C76.2218 -23.8607 78.3463 -19.4364 81.3316 -15.4342C86.7214 -8.2084 100.576 -4.39309 99.1013 4.50002C97.714 12.8669 81.5684 8.38197 76.2831 15.0148C70.6625 22.0685 78.2104 37.2029 70.0248 40.9899C61.9547 44.7235 55.4702 30.3406 46.7336 28.6856Z" fill="#8B0000" fill-opacity="0.9"/>
</g>
<path d="M5 11.6667C5 13.5076 4.22589 15 2.5 15C0.77411 15 0 13.5076 0 11.6667C0 9.82572 1.60147 5 2.5 5C3.39853 5 5 9.82572 5 11.6667Z" fill="#8B0000"/>
<path d="M20 53.6667C20 55.5076 19.2259 57 17.5 57C15.7741 57 15 55.5076 15 53.6667C15 51.8257 16.6015 47 17.5 47C18.3985 47 20 51.8257 20 53.6667Z" fill="#8B0000"/>
<path d="M60 45.6667C60 47.5076 59.2259 49 57.5 49C55.7741 49 55 47.5076 55 45.6667C55 43.8257 56.6015 39 57.5 39C58.3985 39 60 43.8257 60 45.6667Z" fill="#8B0000"/>
<defs>
<filter id="filter0_i_47_1910" x="1.53369" y="-51.7745" width="112.677" height="108.381" filterUnits="userSpaceOnUse" color-interpolation-filters="sRGB">
<feFlood flood-opacity="0" result="BackgroundImageFix"/>
<feBlend mode="normal" in="SourceGraphic" in2="BackgroundImageFix" result="shape"/>
<feColorMatrix in="SourceAlpha" type="matrix" values="0 0 0 0 0 0 0 0 0 0 0 0 0 0 0 0 0 0 127 0" result="hardAlpha"/>
<feOffset dx="30" dy="15"/>
<feGaussianBlur stdDeviation="7.5"/>
<feComposite in2="hardAlpha" operator="arithmetic" k2="-1" k3="1"/>
<feColorMatrix type="matrix" values="0 0 0 0 0.945644 0 0 0 0 0.187353 0 0 0 0 0.187353 0 0 0 0.25 0"/>
<feBlend mode="normal" in2="shape" result="effect1_innerShadow_47_1910"/>
</filter>
</defs>
</svg>
