<svg width="80" height="67" viewBox="0 0 80 67" fill="none" xmlns="http://www.w3.org/2000/svg">
<g filter="url(#filter0_i_47_1905)">
<path fill-rule="evenodd" clip-rule="evenodd" d="M24.7336 22.6856C17.7323 21.3594 10.105 30.3254 4.00005 26.6503C-2.25468 22.8851 1.54807 11.9884 -2.79033 6.1167C-7.14165 0.227467 -20.6689 0.859442 -20.4639 -6.46006C-20.2307 -14.7886 -4.74829 -14.9585 -1.98004 -22.817C0.474843 -29.786 -9.28564 -36.9771 -7.21546 -44.0698C-5.32066 -50.5617 1.59124 -54.9801 8.02005 -57.0789C14.3802 -59.1552 21.1027 -55.9677 27.7763 -55.4934C34.2432 -55.0338 42.0037 -58.5085 46.9456 -54.3123C52.2293 -49.8258 50.0179 -41.0196 52.4615 -34.5331C54.2218 -29.8607 56.3463 -25.4364 59.3316 -21.4342C64.7214 -14.2084 78.5758 -10.3931 77.1013 -1.49998C75.714 6.86688 59.5684 2.38197 54.2831 9.01482C48.6625 16.0685 56.2104 31.2029 48.0248 34.9899C39.9547 38.7235 33.4702 24.3406 24.7336 22.6856Z" fill="#8B0000" fill-opacity="0.9"/>
</g>
<path d="M13 37.6667C13 39.5076 12.2259 41 10.5 41C8.77411 41 8 39.5076 8 37.6667C8 35.8257 9.60147 31 10.5 31C11.3985 31 13 35.8257 13 37.6667Z" fill="#8B0000"/>
<path d="M53 63.6667C53 65.5076 52.2259 67 50.5 67C48.7741 67 48 65.5076 48 63.6667C48 61.8257 49.6015 57 50.5 57C51.3985 57 53 61.8257 53 63.6667Z" fill="#8B0000"/>
<path d="M64 21.6667C64 23.5076 63.2259 25 61.5 25C59.7741 25 59 23.5076 59 21.6667C59 19.8257 60.6015 15 61.5 15C62.3985 15 64 19.8257 64 21.6667Z" fill="#8B0000"/>
<defs>
<filter id="filter0_i_47_1905" x="-20.4663" y="-57.7745" width="112.677" height="108.381" filterUnits="userSpaceOnUse" color-interpolation-filters="sRGB">
<feFlood flood-opacity="0" result="BackgroundImageFix"/>
<feBlend mode="normal" in="SourceGraphic" in2="BackgroundImageFix" result="shape"/>
<feColorMatrix in="SourceAlpha" type="matrix" values="0 0 0 0 0 0 0 0 0 0 0 0 0 0 0 0 0 0 127 0" result="hardAlpha"/>
<feOffset dx="30" dy="15"/>
<feGaussianBlur stdDeviation="7.5"/>
<feComposite in2="hardAlpha" operator="arithmetic" k2="-1" k3="1"/>
<feColorMatrix type="matrix" values="0 0 0 0 0.945644 0 0 0 0 0.187353 0 0 0 0 0.187353 0 0 0 0.25 0"/>
<feBlend mode="normal" in2="shape" result="effect1_innerShadow_47_1905"/>
</filter>
</defs>
</svg>
