<svg width="24" height="24" viewBox="0 0 24 24" fill="none" xmlns="http://www.w3.org/2000/svg">
<path d="M20.4098 6.96V8.79C20.4098 9.43 20.1098 10.03 19.5898 10.4L8.58984 18.46C7.87984 18.98 6.90984 18.98 6.20984 18.45L4.76984 17.37C4.11984 16.88 3.58984 15.82 3.58984 15.01V6.96C3.58984 5.84 4.44984 4.6 5.49984 4.21L10.9698 2.16C11.5398 1.95 12.4598 1.95 13.0298 2.16L18.4998 4.21C19.5498 4.6 20.4098 5.84 20.4098 6.96Z" fill="#4A102A"/>
<path d="M18.8196 12.34C19.4796 11.86 20.4096 12.33 20.4096 13.15V15.03C20.4096 15.84 19.8796 16.89 19.2296 17.38L13.7596 21.47C13.2796 21.82 12.6396 22 11.9996 22C11.3596 22 10.7196 21.82 10.2396 21.46L9.40962 20.84C8.86962 20.44 8.86962 19.63 9.41962 19.23L18.8196 12.34Z" fill="#4A102A"/>
</svg>
